<mxfile host="app.diagrams.net" agent="Mozilla/5.0 (Windows NT 10.0; Win64; x64) AppleWebKit/537.36 (KHTML, like Gecko) Chrome/127.0.0.0 Safari/537.36" version="24.7.7">
  <diagram name="Page-1" id="3k2GI7umOkz1AsJeDrGB">
    <mxGraphModel dx="1348" dy="1741" grid="1" gridSize="10" guides="1" tooltips="1" connect="1" arrows="1" fold="1" page="1" pageScale="1" pageWidth="827" pageHeight="1169" math="0" shadow="0">
      <root>
        <mxCell id="0" />
        <mxCell id="1" parent="0" />
        <mxCell id="3-Dag1s_dqLoRyYHG3y7-7" style="edgeStyle=orthogonalEdgeStyle;rounded=0;orthogonalLoop=1;jettySize=auto;html=1;exitX=0.5;exitY=1;exitDx=0;exitDy=0;" parent="1" source="3-Dag1s_dqLoRyYHG3y7-1" target="3-Dag1s_dqLoRyYHG3y7-2" edge="1">
          <mxGeometry relative="1" as="geometry" />
        </mxCell>
        <mxCell id="3-Dag1s_dqLoRyYHG3y7-1" value="début" style="ellipse;whiteSpace=wrap;html=1;fillColor=#d5e8d4;strokeColor=#82b366;" parent="1" vertex="1">
          <mxGeometry x="135" y="-1140" width="60" height="40" as="geometry" />
        </mxCell>
        <mxCell id="3-Dag1s_dqLoRyYHG3y7-5" style="edgeStyle=orthogonalEdgeStyle;rounded=0;orthogonalLoop=1;jettySize=auto;html=1;exitX=0.25;exitY=1;exitDx=0;exitDy=0;entryX=0.5;entryY=0;entryDx=0;entryDy=0;" parent="1" source="3-Dag1s_dqLoRyYHG3y7-2" target="3-Dag1s_dqLoRyYHG3y7-3" edge="1">
          <mxGeometry relative="1" as="geometry" />
        </mxCell>
        <mxCell id="3-Dag1s_dqLoRyYHG3y7-6" style="edgeStyle=orthogonalEdgeStyle;rounded=0;orthogonalLoop=1;jettySize=auto;html=1;exitX=0.75;exitY=1;exitDx=0;exitDy=0;entryX=0.5;entryY=0;entryDx=0;entryDy=0;" parent="1" source="3-Dag1s_dqLoRyYHG3y7-2" target="3-Dag1s_dqLoRyYHG3y7-4" edge="1">
          <mxGeometry relative="1" as="geometry" />
        </mxCell>
        <mxCell id="3-Dag1s_dqLoRyYHG3y7-2" value="si longueur(recetteRecherchée) &amp;lt; 3" style="rounded=1;whiteSpace=wrap;html=1;fillColor=#e1d5e7;strokeColor=#9673a6;" parent="1" vertex="1">
          <mxGeometry x="60" y="-1070" width="210" height="30" as="geometry" />
        </mxCell>
        <mxCell id="3-Dag1s_dqLoRyYHG3y7-9" style="edgeStyle=orthogonalEdgeStyle;rounded=0;orthogonalLoop=1;jettySize=auto;html=1;exitX=0.5;exitY=1;exitDx=0;exitDy=0;" parent="1" source="3-Dag1s_dqLoRyYHG3y7-3" target="3-Dag1s_dqLoRyYHG3y7-8" edge="1">
          <mxGeometry relative="1" as="geometry" />
        </mxCell>
        <mxCell id="3-Dag1s_dqLoRyYHG3y7-3" value="oui" style="ellipse;whiteSpace=wrap;html=1;fillColor=#f8cecc;strokeColor=#b85450;" parent="1" vertex="1">
          <mxGeometry x="75" y="-1000" width="50" height="40" as="geometry" />
        </mxCell>
        <mxCell id="3-Dag1s_dqLoRyYHG3y7-14" style="edgeStyle=orthogonalEdgeStyle;rounded=0;orthogonalLoop=1;jettySize=auto;html=1;exitX=1;exitY=0.5;exitDx=0;exitDy=0;entryX=0.5;entryY=0;entryDx=0;entryDy=0;" parent="1" source="3-Dag1s_dqLoRyYHG3y7-4" target="3-Dag1s_dqLoRyYHG3y7-12" edge="1">
          <mxGeometry relative="1" as="geometry" />
        </mxCell>
        <mxCell id="3-Dag1s_dqLoRyYHG3y7-4" value="non" style="ellipse;whiteSpace=wrap;html=1;fillColor=#f8cecc;strokeColor=#b85450;" parent="1" vertex="1">
          <mxGeometry x="205" y="-1000" width="50" height="40" as="geometry" />
        </mxCell>
        <mxCell id="3-Dag1s_dqLoRyYHG3y7-8" value="afficher &quot;veuillez entrer au moins trois caractères&quot;" style="rounded=1;whiteSpace=wrap;html=1;fillColor=#e1d5e7;strokeColor=#9673a6;" parent="1" vertex="1">
          <mxGeometry x="-20" y="-910" width="180" height="60" as="geometry" />
        </mxCell>
        <mxCell id="3-Dag1s_dqLoRyYHG3y7-17" style="edgeStyle=orthogonalEdgeStyle;rounded=0;orthogonalLoop=1;jettySize=auto;html=1;exitX=0.5;exitY=1;exitDx=0;exitDy=0;entryX=0.5;entryY=0;entryDx=0;entryDy=0;" parent="1" source="3-Dag1s_dqLoRyYHG3y7-12" target="3-Dag1s_dqLoRyYHG3y7-16" edge="1">
          <mxGeometry relative="1" as="geometry" />
        </mxCell>
        <mxCell id="3-Dag1s_dqLoRyYHG3y7-12" value="lowerRecetteRecherchée = convertir(recetteRecherchée en minuscules)" style="rounded=1;whiteSpace=wrap;html=1;fillColor=#e1d5e7;strokeColor=#9673a6;" parent="1" vertex="1">
          <mxGeometry x="185" y="-940" width="240" height="40" as="geometry" />
        </mxCell>
        <mxCell id="3-Dag1s_dqLoRyYHG3y7-16" value="&lt;span style=&quot;text-align: left;&quot;&gt;recipesFiltrés = filter(recipes, fonction(recipe)&lt;/span&gt;" style="rounded=1;whiteSpace=wrap;html=1;fillColor=#e1d5e7;strokeColor=#9673a6;" parent="1" vertex="1">
          <mxGeometry x="185" y="-870" width="260" height="20" as="geometry" />
        </mxCell>
        <mxCell id="3-Dag1s_dqLoRyYHG3y7-43" style="edgeStyle=orthogonalEdgeStyle;rounded=0;orthogonalLoop=1;jettySize=auto;html=1;exitX=0.5;exitY=1;exitDx=0;exitDy=0;entryX=0;entryY=0.5;entryDx=0;entryDy=0;" parent="1" source="3-Dag1s_dqLoRyYHG3y7-19" target="3-Dag1s_dqLoRyYHG3y7-41" edge="1">
          <mxGeometry relative="1" as="geometry" />
        </mxCell>
        <mxCell id="3-Dag1s_dqLoRyYHG3y7-19" value="&lt;span style=&quot;text-align: left;&quot;&gt;titreMatch = titre de la recette dans lowerRecetteRecherchée&lt;/span&gt;" style="rounded=1;whiteSpace=wrap;html=1;fillColor=#f8cecc;strokeColor=#b85450;" parent="1" vertex="1">
          <mxGeometry x="65" y="-800" width="190" height="50" as="geometry" />
        </mxCell>
        <mxCell id="3-Dag1s_dqLoRyYHG3y7-39" style="edgeStyle=orthogonalEdgeStyle;rounded=0;orthogonalLoop=1;jettySize=auto;html=1;exitX=0.5;exitY=1;exitDx=0;exitDy=0;entryX=0.5;entryY=0;entryDx=0;entryDy=0;" parent="1" source="3-Dag1s_dqLoRyYHG3y7-20" target="3-Dag1s_dqLoRyYHG3y7-35" edge="1">
          <mxGeometry relative="1" as="geometry" />
        </mxCell>
        <mxCell id="3-Dag1s_dqLoRyYHG3y7-20" value="&amp;nbsp;ingredientMatch = some(ingrédients de la recette, fonction(ingrédient)" style="rounded=1;whiteSpace=wrap;html=1;fillColor=#f8cecc;strokeColor=#b85450;" parent="1" vertex="1">
          <mxGeometry x="310" y="-820" width="181" height="50" as="geometry" />
        </mxCell>
        <mxCell id="3-Dag1s_dqLoRyYHG3y7-44" style="edgeStyle=orthogonalEdgeStyle;rounded=0;orthogonalLoop=1;jettySize=auto;html=1;exitX=0.5;exitY=1;exitDx=0;exitDy=0;entryX=1;entryY=0.5;entryDx=0;entryDy=0;" parent="1" source="3-Dag1s_dqLoRyYHG3y7-21" target="3-Dag1s_dqLoRyYHG3y7-41" edge="1">
          <mxGeometry relative="1" as="geometry" />
        </mxCell>
        <mxCell id="3-Dag1s_dqLoRyYHG3y7-21" value="descriptionMatch = description de la recette contient lowerRecetteRecherchée" style="rounded=1;whiteSpace=wrap;html=1;fillColor=#f8cecc;strokeColor=#b85450;" parent="1" vertex="1">
          <mxGeometry x="550" y="-800" width="190" height="50" as="geometry" />
        </mxCell>
        <mxCell id="3-Dag1s_dqLoRyYHG3y7-42" style="edgeStyle=orthogonalEdgeStyle;rounded=0;orthogonalLoop=1;jettySize=auto;html=1;exitX=0.5;exitY=1;exitDx=0;exitDy=0;entryX=0.5;entryY=0;entryDx=0;entryDy=0;" parent="1" source="3-Dag1s_dqLoRyYHG3y7-35" target="3-Dag1s_dqLoRyYHG3y7-41" edge="1">
          <mxGeometry relative="1" as="geometry" />
        </mxCell>
        <mxCell id="3-Dag1s_dqLoRyYHG3y7-35" value="ingrédient de la recette dans lowerRecetteRecherchée" style="rounded=1;whiteSpace=wrap;html=1;fillColor=#f8cecc;strokeColor=#b85450;" parent="1" vertex="1">
          <mxGeometry x="310" y="-750" width="181" height="50" as="geometry" />
        </mxCell>
        <mxCell id="3-Dag1s_dqLoRyYHG3y7-36" style="edgeStyle=orthogonalEdgeStyle;rounded=0;orthogonalLoop=1;jettySize=auto;html=1;exitX=1;exitY=0.5;exitDx=0;exitDy=0;entryX=0.539;entryY=-0.028;entryDx=0;entryDy=0;entryPerimeter=0;" parent="1" source="3-Dag1s_dqLoRyYHG3y7-16" target="3-Dag1s_dqLoRyYHG3y7-21" edge="1">
          <mxGeometry relative="1" as="geometry" />
        </mxCell>
        <mxCell id="3-Dag1s_dqLoRyYHG3y7-37" style="edgeStyle=orthogonalEdgeStyle;rounded=0;orthogonalLoop=1;jettySize=auto;html=1;exitX=0.75;exitY=1;exitDx=0;exitDy=0;entryX=0.398;entryY=-0.076;entryDx=0;entryDy=0;entryPerimeter=0;" parent="1" source="3-Dag1s_dqLoRyYHG3y7-16" target="3-Dag1s_dqLoRyYHG3y7-20" edge="1">
          <mxGeometry relative="1" as="geometry" />
        </mxCell>
        <mxCell id="3-Dag1s_dqLoRyYHG3y7-38" style="edgeStyle=orthogonalEdgeStyle;rounded=0;orthogonalLoop=1;jettySize=auto;html=1;exitX=0.25;exitY=1;exitDx=0;exitDy=0;entryX=0.658;entryY=0.036;entryDx=0;entryDy=0;entryPerimeter=0;" parent="1" source="3-Dag1s_dqLoRyYHG3y7-16" target="3-Dag1s_dqLoRyYHG3y7-19" edge="1">
          <mxGeometry relative="1" as="geometry" />
        </mxCell>
        <mxCell id="3-Dag1s_dqLoRyYHG3y7-46" style="edgeStyle=orthogonalEdgeStyle;rounded=0;orthogonalLoop=1;jettySize=auto;html=1;exitX=0.5;exitY=1;exitDx=0;exitDy=0;entryX=0.5;entryY=0;entryDx=0;entryDy=0;" parent="1" source="3-Dag1s_dqLoRyYHG3y7-41" target="3-Dag1s_dqLoRyYHG3y7-45" edge="1">
          <mxGeometry relative="1" as="geometry" />
        </mxCell>
        <mxCell id="3-Dag1s_dqLoRyYHG3y7-41" value="&lt;span style=&quot;text-align: left;&quot;&gt;ajouter recette à recipesFiltrés&lt;/span&gt;" style="rounded=1;whiteSpace=wrap;html=1;fillColor=#e1d5e7;strokeColor=#9673a6;" parent="1" vertex="1">
          <mxGeometry x="325.5" y="-660" width="150" height="50" as="geometry" />
        </mxCell>
        <mxCell id="NBby1GUL53pNBU2tPlBh-3" style="edgeStyle=none;curved=1;rounded=0;orthogonalLoop=1;jettySize=auto;html=1;exitX=0.5;exitY=1;exitDx=0;exitDy=0;entryX=0.5;entryY=0;entryDx=0;entryDy=0;fontSize=12;startSize=8;endSize=8;" edge="1" parent="1" source="3-Dag1s_dqLoRyYHG3y7-45" target="NBby1GUL53pNBU2tPlBh-2">
          <mxGeometry relative="1" as="geometry" />
        </mxCell>
        <mxCell id="3-Dag1s_dqLoRyYHG3y7-45" value="&lt;b&gt;élimination des doublons&amp;nbsp;&lt;/b&gt;&lt;div&gt;recipesFiltrésUnique = ensemble(recipesFiltrés)&lt;/div&gt;" style="rounded=1;whiteSpace=wrap;html=1;fillColor=#e1d5e7;strokeColor=#9673a6;" parent="1" vertex="1">
          <mxGeometry x="298.25" y="-580" width="204.5" height="90" as="geometry" />
        </mxCell>
        <mxCell id="NBby1GUL53pNBU2tPlBh-1" value="fin" style="ellipse;whiteSpace=wrap;html=1;fillColor=#d5e8d4;strokeColor=#82b366;" vertex="1" parent="1">
          <mxGeometry x="378" y="-350" width="45" height="40" as="geometry" />
        </mxCell>
        <mxCell id="NBby1GUL53pNBU2tPlBh-4" style="edgeStyle=none;curved=1;rounded=0;orthogonalLoop=1;jettySize=auto;html=1;exitX=0.5;exitY=1;exitDx=0;exitDy=0;entryX=0.5;entryY=0;entryDx=0;entryDy=0;fontSize=12;startSize=8;endSize=8;" edge="1" parent="1" source="NBby1GUL53pNBU2tPlBh-2" target="NBby1GUL53pNBU2tPlBh-1">
          <mxGeometry relative="1" as="geometry" />
        </mxCell>
        <mxCell id="NBby1GUL53pNBU2tPlBh-2" value="&lt;b&gt;retourner recipesFiltrésUnique&lt;/b&gt;" style="rounded=1;whiteSpace=wrap;html=1;fillColor=#e1d5e7;strokeColor=#9673a6;" vertex="1" parent="1">
          <mxGeometry x="298.25" y="-470" width="204.5" height="90" as="geometry" />
        </mxCell>
      </root>
    </mxGraphModel>
  </diagram>
</mxfile>
